<svg xmlns="http://www.w3.org/2000/svg" width="1200" height="520" viewBox="0 0 1200 520">
<rect width="1200" height="520" fill="white"/>
<style>text{font-family:Arial,sans-serif;fill:#111;letter-spacing:0} .small{font-size:14px} .title{font-size:20px;font-weight:600}</style>
<text x="40" y="40" class="title">Conic-pencil surface response under the inverse-square reduced Hessian</text>
<text x="260" y="82" class="small" text-anchor="middle">initial conic bundle</text>
<text x="900" y="82" class="small" text-anchor="middle">J* Q J response: bend + pinch + twist</text>
<polyline points="356.62,449.40 357.95,449.51 352.75,453.94 341.80,462.01 326.78,472.49 309.97,483.79 293.92,494.18 281.09,502.10 273.42,506.32 272.09,506.21 277.29,501.79 288.24,493.72 303.26,483.24 320.07,471.94 336.12,461.54 348.95,453.63 356.62,449.40" fill="none" stroke="#9a9a9a" stroke-width="1.1" opacity="0.9"/>
<polyline points="334.33,409.96 335.34,409.50 329.22,412.29 316.90,417.92 300.25,425.53 281.81,433.95 264.39,441.91 250.64,448.20 242.65,451.85 241.64,452.31 247.76,449.52 260.08,443.89 276.73,436.28 295.17,427.86 312.59,419.90 326.34,413.61 334.33,409.96" fill="none" stroke="#9a9a9a" stroke-width="1.1" opacity="0.9"/>
<polyline points="319.10,367.29 319.89,366.21 313.14,367.25 299.87,370.24 282.12,374.73 262.57,380.05 244.21,385.37 229.82,389.89 221.61,392.93 220.82,394.01 227.58,392.98 240.84,389.98 258.60,385.49 278.15,380.17 296.51,374.85 310.89,370.33 319.10,367.29" fill="none" stroke="#9a9a9a" stroke-width="1.1" opacity="0.9"/>
<polyline points="311.37,322.65 312.05,320.92 304.98,320.11 291.24,320.35 272.92,321.59 252.80,323.65 233.96,326.22 219.26,328.90 210.94,331.28 210.26,333.01 217.33,333.82 231.08,333.58 249.40,332.34 269.51,330.28 288.35,327.72 303.05,325.04 311.37,322.65" fill="none" stroke="#9a9a9a" stroke-width="1.1" opacity="0.9"/>
<polyline points="311.37,277.35 312.05,274.96 304.98,272.28 291.24,269.72 272.92,267.66 252.80,266.42 233.96,266.18 219.26,266.99 210.94,268.72 210.26,271.10 217.33,273.78 231.08,276.35 249.40,278.41 269.51,279.65 288.35,279.89 303.05,279.08 311.37,277.35" fill="none" stroke="#9a9a9a" stroke-width="1.1" opacity="0.9"/>
<polyline points="319.10,232.71 319.89,229.67 313.14,225.15 299.87,219.83 282.12,214.51 262.57,210.02 244.21,207.02 229.82,205.99 221.61,207.07 220.82,210.11 227.58,214.63 240.84,219.95 258.60,225.27 278.15,229.76 296.51,232.75 310.89,233.79 319.10,232.71" fill="none" stroke="#9a9a9a" stroke-width="1.1" opacity="0.9"/>
<polyline points="334.33,190.04 335.34,186.39 329.22,180.10 316.90,172.14 300.25,163.72 281.81,156.11 264.39,150.48 250.64,147.69 242.65,148.15 241.64,151.80 247.76,158.09 260.08,166.05 276.73,174.47 295.17,182.08 312.59,187.71 326.34,190.50 334.33,190.04" fill="none" stroke="#9a9a9a" stroke-width="1.1" opacity="0.9"/>
<polyline points="356.62,150.60 357.95,146.37 352.75,138.46 341.80,128.06 326.78,116.76 309.97,106.28 293.92,98.21 281.09,93.79 273.42,93.68 272.09,97.90 277.29,105.82 288.24,116.21 303.26,127.51 320.07,137.99 336.12,146.06 348.95,150.49 356.62,150.60" fill="none" stroke="#9a9a9a" stroke-width="1.1" opacity="0.9"/>
<polyline points="356.62,449.40 334.33,409.96 319.10,367.29 311.37,322.65 311.37,277.35 319.10,232.71 334.33,190.04 356.62,150.60" fill="none" stroke="#9a9a9a" stroke-width="1.1" opacity="0.9"/>
<polyline points="352.75,453.94 329.22,412.29 313.14,367.25 304.98,320.11 304.98,272.28 313.14,225.15 329.22,180.10 352.75,138.46" fill="none" stroke="#9a9a9a" stroke-width="1.1" opacity="0.9"/>
<polyline points="326.78,472.49 300.25,425.53 282.12,374.73 272.92,321.59 272.92,267.66 282.12,214.51 300.25,163.72 326.78,116.76" fill="none" stroke="#9a9a9a" stroke-width="1.1" opacity="0.9"/>
<polyline points="293.92,494.18 264.39,441.91 244.21,385.37 233.96,326.22 233.96,266.18 244.21,207.02 264.39,150.48 293.92,98.21" fill="none" stroke="#9a9a9a" stroke-width="1.1" opacity="0.9"/>
<polyline points="273.42,506.32 242.65,451.85 221.61,392.93 210.94,331.28 210.94,268.72 221.61,207.07 242.65,148.15 273.42,93.68" fill="none" stroke="#9a9a9a" stroke-width="1.1" opacity="0.9"/>
<polyline points="277.29,501.79 247.76,449.52 227.58,392.98 217.33,333.82 217.33,273.78 227.58,214.63 247.76,158.09 277.29,105.82" fill="none" stroke="#9a9a9a" stroke-width="1.1" opacity="0.9"/>
<polyline points="303.26,483.24 276.73,436.28 258.60,385.49 249.40,332.34 249.40,278.41 258.60,225.27 276.73,174.47 303.26,127.51" fill="none" stroke="#9a9a9a" stroke-width="1.1" opacity="0.9"/>
<polyline points="336.12,461.54 312.59,419.90 296.51,374.85 288.35,327.72 288.35,279.89 296.51,232.75 312.59,187.71 336.12,146.06" fill="none" stroke="#9a9a9a" stroke-width="1.1" opacity="0.9"/>
<polyline points="1000.10,449.40 1001.43,449.51 996.23,453.94 985.28,462.00 970.25,472.49 953.44,483.79 937.40,494.18 924.57,502.10 916.91,506.32 915.58,506.21 920.78,501.79 931.73,493.72 946.75,483.24 963.57,471.94 979.61,461.54 992.44,453.63 1000.10,449.40" fill="none" stroke="#111111" stroke-width="1.25" opacity="1.0"/>
<polyline points="977.94,409.96 978.93,409.49 972.79,412.29 960.45,417.92 943.79,425.53 925.35,433.95 907.94,441.92 894.20,448.20 886.23,451.86 885.24,452.32 891.38,449.52 903.72,443.89 920.37,436.28 938.81,427.86 956.23,419.89 969.96,413.61 977.94,409.96" fill="none" stroke="#111111" stroke-width="1.25" opacity="1.0"/>
<polyline points="962.75,367.29 963.52,366.21 956.74,367.25 943.46,370.24 925.69,374.74 906.14,380.06 887.79,385.38 873.43,389.90 865.24,392.93 864.47,394.01 871.25,392.97 884.53,389.98 902.30,385.48 921.85,380.16 940.20,374.84 954.56,370.32 962.75,367.29" fill="none" stroke="#111111" stroke-width="1.25" opacity="1.0"/>
<polyline points="955.04,322.65 955.69,320.93 948.61,320.12 934.85,320.36 916.52,321.61 896.41,323.67 877.58,326.23 862.90,328.90 854.60,331.28 853.94,333.01 861.03,333.81 874.78,333.57 893.11,332.33 913.22,330.27 932.05,327.70 946.73,325.03 955.04,322.65" fill="none" stroke="#111111" stroke-width="1.25" opacity="1.0"/>
<polyline points="955.03,277.35 955.69,274.97 948.61,272.30 934.87,269.73 916.54,267.67 896.44,266.43 877.61,266.19 862.92,266.99 854.61,268.72 853.94,271.10 861.02,273.77 874.77,276.33 893.09,278.39 913.20,279.64 932.03,279.88 946.72,279.07 955.03,277.35" fill="none" stroke="#111111" stroke-width="1.25" opacity="1.0"/>
<polyline points="962.72,232.71 963.51,229.68 956.76,225.16 943.50,219.84 925.75,214.52 906.20,210.02 887.85,207.03 873.47,205.99 865.26,207.07 864.48,210.10 871.23,214.62 884.49,219.94 902.24,225.26 921.79,229.76 940.14,232.75 954.52,233.79 962.72,232.71" fill="none" stroke="#111111" stroke-width="1.25" opacity="1.0"/>
<polyline points="977.91,190.04 978.93,186.39 972.81,180.11 960.49,172.14 943.85,163.72 925.41,156.11 908.00,150.48 894.24,147.68 886.25,148.14 885.24,151.80 891.36,158.08 903.67,166.05 920.32,174.47 938.75,182.08 956.17,187.71 969.92,190.51 977.91,190.04" fill="none" stroke="#111111" stroke-width="1.25" opacity="1.0"/>
<polyline points="1000.10,150.60 1001.43,146.37 996.23,138.46 985.29,128.06 970.26,116.76 953.45,106.28 937.41,98.21 924.58,93.79 916.91,93.68 915.58,97.90 920.78,105.82 931.72,116.21 946.74,127.51 963.55,138.00 979.60,146.06 992.43,150.49 1000.10,150.60" fill="none" stroke="#111111" stroke-width="1.25" opacity="1.0"/>
<polyline points="1000.10,449.40 977.94,409.96 962.75,367.29 955.04,322.65 955.03,277.35 962.72,232.71 977.91,190.04 1000.10,150.60" fill="none" stroke="#111111" stroke-width="1.25" opacity="1.0"/>
<polyline points="996.23,453.94 972.79,412.29 956.74,367.25 948.61,320.12 948.61,272.30 956.76,225.16 972.81,180.11 996.23,138.46" fill="none" stroke="#111111" stroke-width="1.25" opacity="1.0"/>
<polyline points="970.25,472.49 943.79,425.53 925.69,374.74 916.52,321.61 916.54,267.67 925.75,214.52 943.85,163.72 970.26,116.76" fill="none" stroke="#111111" stroke-width="1.25" opacity="1.0"/>
<polyline points="937.40,494.18 907.94,441.92 887.79,385.38 877.58,326.23 877.61,266.19 887.85,207.03 908.00,150.48 937.41,98.21" fill="none" stroke="#111111" stroke-width="1.25" opacity="1.0"/>
<polyline points="916.91,506.32 886.23,451.86 865.24,392.93 854.60,331.28 854.61,268.72 865.26,207.07 886.25,148.14 916.91,93.68" fill="none" stroke="#111111" stroke-width="1.25" opacity="1.0"/>
<polyline points="920.78,501.79 891.38,449.52 871.25,392.97 861.03,333.81 861.02,273.77 871.23,214.62 891.36,158.08 920.78,105.82" fill="none" stroke="#111111" stroke-width="1.25" opacity="1.0"/>
<polyline points="946.75,483.24 920.37,436.28 902.30,385.48 893.11,332.33 893.09,278.39 902.24,225.26 920.32,174.47 946.74,127.51" fill="none" stroke="#111111" stroke-width="1.25" opacity="1.0"/>
<polyline points="979.61,461.54 956.23,419.89 940.20,374.84 932.05,327.70 932.03,279.88 940.14,232.75 956.17,187.71 979.60,146.06" fill="none" stroke="#111111" stroke-width="1.25" opacity="1.0"/>
<line x1="520" y1="285" x2="675" y2="285" stroke="#111" stroke-width="1.4"/>
<path d="M675 285 l-12 -6 l0 12 z" fill="#111"/>
<text x="597" y="268" class="small" text-anchor="middle">matrix-free solve</text>
<text x="600" y="480" class="small" text-anchor="middle">stored state: conic value/3-jets and SU(2) rotors; no distance matrix or reduced Hessian</text>
</svg>
