<svg xmlns="http://www.w3.org/2000/svg" width="1200" height="880" viewBox="0 0 1200 880">
<rect width="100%" height="100%" fill="#ffffff"/>
<g fill="none" stroke="#111111" stroke-width="1.8">
<polyline points="157.37,39.60 171.82,42.47 185.43,48.11 197.68,56.30 208.10,66.72 216.29,78.97 221.93,92.58 224.80,107.03 224.80,121.77 221.93,136.22 216.29,149.83 208.10,162.08 197.68,172.50 185.43,180.69 171.82,186.33 157.37,189.20 142.63,189.20 128.18,186.33 114.57,180.69 102.32,172.50 91.90,162.08 83.71,149.83 78.07,136.22 75.20,121.77 75.20,107.03 78.07,92.58 83.71,78.97 91.90,66.72 102.32,56.30 114.57,48.11 128.18,42.47 142.63,39.60 157.37,39.60"/>
<polyline points="453.09,39.60 459.15,42.47 464.86,48.11 470.00,56.30 474.36,66.72 477.80,78.97 480.16,92.58 481.37,107.03 481.37,121.77 480.16,136.22 477.80,149.83 474.36,162.08 470.00,172.50 464.86,180.69 459.15,186.33 453.09,189.20 446.91,189.20 440.85,186.33 435.14,180.69 430.00,172.50 425.64,162.08 422.20,149.83 419.84,136.22 418.63,121.77 418.63,107.03 419.84,92.58 422.20,78.97 425.64,66.72 430.00,56.30 435.14,48.11 440.85,42.47 446.91,39.60 453.09,39.60"/>
<polyline points="760.64,71.20 781.50,72.86 801.16,76.12 818.85,80.84 833.89,86.86 845.71,93.94 853.85,101.80 858.00,110.15 858.00,118.65 853.85,127.00 845.71,134.86 833.89,141.94 818.85,147.96 801.16,152.68 781.50,155.94 760.64,157.60 739.36,157.60 718.50,155.94 698.84,152.68 681.15,147.96 666.11,141.94 654.29,134.86 646.15,127.00 642.00,118.65 642.00,110.15 646.15,101.80 654.29,93.94 666.11,86.86 681.15,80.84 698.84,76.12 718.50,72.86 739.36,71.20 760.64,71.20"/>
<polyline points="1059.88,39.60 1079.27,42.47 1097.54,48.11 1113.97,56.30 1127.95,66.72 1138.93,78.97 1146.50,92.58 1150.35,107.03 1150.35,121.77 1146.50,136.22 1138.93,149.83 1127.95,162.08 1113.97,172.50 1097.54,180.69 1079.27,186.33 1059.88,189.20 1040.12,189.20 1020.73,186.33 1002.46,180.69 986.03,172.50 972.05,162.08 961.07,149.83 953.50,136.22 949.65,121.77 949.65,107.03 953.50,92.58 961.07,78.97 972.05,66.72 986.03,56.30 1002.46,48.11 1020.73,42.47 1040.12,39.60 1059.88,39.60"/>
<polyline points="157.37,259.60 171.10,264.83 182.12,274.30 189.45,286.33 193.09,299.03 193.92,310.93 193.29,321.27 192.57,330.21 192.57,338.59 193.29,347.53 193.92,357.87 193.09,369.77 189.45,382.47 182.12,394.50 171.10,403.97 157.37,409.20 142.63,409.20 128.90,403.97 117.88,394.50 110.55,382.47 106.91,369.77 106.08,357.87 106.71,347.53 107.43,338.59 107.43,330.21 106.71,321.27 106.08,310.93 106.91,299.03 110.55,286.33 117.88,274.30 128.90,264.83 142.63,259.60 157.37,259.60"/>
<polyline points="458.22,259.60 474.28,263.02 489.50,269.15 503.85,277.43 517.00,288.06 527.84,301.44 535.10,317.23 538.41,334.34 538.52,351.76 535.97,369.12 529.99,385.80 519.13,399.78 503.38,408.09 485.36,409.20 468.86,405.22 455.72,401.12 444.28,401.12 431.14,405.22 414.64,409.20 396.62,408.09 380.87,399.78 370.01,385.80 364.03,369.12 361.48,351.76 361.59,334.34 364.90,317.23 372.16,301.44 383.00,288.06 396.15,277.43 410.50,269.15 425.72,263.02 441.78,259.60 458.22,259.60"/>
<polyline points="750.01,259.60 750.53,262.47 753.71,268.11 762.17,276.30 776.84,286.72 795.47,298.97 813.03,312.58 823.72,327.03 823.72,341.77 813.03,356.22 795.47,369.83 776.84,382.08 762.17,392.50 753.71,400.69 750.53,406.33 750.01,409.20 749.99,409.20 749.47,406.33 746.29,400.69 737.83,392.50 723.16,382.08 704.53,369.83 686.97,356.22 676.28,341.77 676.28,327.03 686.97,312.58 704.53,298.97 723.16,286.72 737.83,276.30 746.29,268.11 749.47,262.47 749.99,259.60 750.01,259.60"/>
<polyline points="1064.67,259.60 1075.25,261.05 1082.18,263.99 1087.33,268.48 1091.20,274.68 1094.01,282.92 1095.84,294.00 1096.75,310.93 1096.75,357.87 1095.84,374.80 1094.01,385.88 1091.20,394.12 1087.33,400.32 1082.18,404.81 1075.25,407.75 1064.67,409.20 1035.33,409.20 1024.75,407.75 1017.82,404.81 1012.67,400.32 1008.80,394.12 1005.99,385.88 1004.16,374.80 1003.25,357.87 1003.25,310.93 1004.16,294.00 1005.99,282.92 1008.80,274.68 1012.67,268.48 1017.82,263.99 1024.75,261.05 1035.33,259.60 1064.67,259.60"/>
<polyline points="258.00,550.03 254.66,541.97 248.49,535.80 240.42,532.46 231.69,532.46 223.62,535.80 217.45,541.97 214.11,550.03 214.11,558.77 217.45,566.83 223.62,573.00 231.69,576.34 240.42,576.34 248.49,573.00 254.66,566.83 258.00,558.77 42.00,558.77 45.34,566.83 51.51,573.00 59.58,576.34 68.31,576.34 76.38,573.00 82.55,566.83 85.89,558.77 85.89,550.03 82.55,541.97 76.38,535.80 68.31,532.46 59.58,532.46 51.51,535.80 45.34,541.97 42.00,550.03 258.00,550.03"/>
<polyline points="558.00,552.60 556.62,549.27 554.07,546.72 550.74,545.34 547.14,545.34 543.81,546.72 541.26,549.27 539.89,552.60 539.89,556.20 541.26,559.53 543.81,562.08 547.14,563.46 550.74,563.46 554.07,562.08 556.62,559.53 558.00,556.20 342.00,556.20 343.38,559.53 345.93,562.08 349.26,563.46 352.86,563.46 356.19,562.08 358.74,559.53 360.11,556.20 360.11,552.60 358.74,549.27 356.19,546.72 352.86,545.34 349.26,545.34 345.93,546.72 343.38,549.27 342.00,552.60 558.00,552.60"/>
<polyline points="829.79,629.20 829.79,619.23 829.79,609.25 829.79,599.28 829.79,589.31 829.79,579.33 829.79,569.36 829.79,559.39 829.79,549.41 829.79,539.44 829.79,529.47 829.79,519.49 829.79,509.52 829.79,499.55 829.79,489.57 829.79,479.60 670.21,479.60 670.21,489.57 670.21,499.55 670.21,509.52 670.21,519.49 670.21,529.47 670.21,539.44 670.21,549.41 670.21,559.39 670.21,569.36 670.21,579.33 670.21,589.31 670.21,599.28 670.21,609.25 670.21,619.23 670.21,629.20 829.79,629.20"/>
<polyline points="1082.49,629.20 1086.83,619.23 1091.16,609.25 1095.50,599.28 1099.84,589.31 1104.18,579.33 1108.52,569.36 1112.86,559.39 1117.20,549.41 1121.53,539.44 1125.87,529.47 1130.21,519.49 1134.55,509.52 1138.89,499.55 1143.23,489.57 1147.56,479.60 952.44,479.60 956.77,489.57 961.11,499.55 965.45,509.52 969.79,519.49 974.13,529.47 978.47,539.44 982.80,549.41 987.14,559.39 991.48,569.36 995.82,579.33 1000.16,589.31 1004.50,599.28 1008.84,609.25 1013.17,619.23 1017.51,629.20 1082.49,629.20"/>
<polyline points="152.88,849.20 157.84,839.23 162.80,829.25 167.76,819.28 172.73,809.31 177.69,799.33 182.65,789.36 187.61,779.39 192.57,769.41 197.54,759.44 202.50,749.47 207.46,739.49 212.42,729.52 217.38,719.55 222.34,709.57 227.31,699.60 72.69,699.60 77.66,709.57 82.62,719.55 87.58,729.52 92.54,739.49 97.50,749.47 102.46,759.44 107.43,769.41 112.39,779.39 117.35,789.36 122.31,799.33 127.27,809.31 132.24,819.28 137.20,829.25 142.16,839.23 147.12,849.20 152.88,849.20"/>
<polyline points="526.20,849.20 519.02,839.23 511.83,829.25 504.65,819.28 497.47,809.31 490.29,799.33 483.11,789.36 475.93,779.39 475.93,769.41 483.11,759.44 490.29,749.47 497.47,739.49 504.65,729.52 511.83,719.55 519.02,709.57 526.20,699.60 373.80,699.60 380.98,709.57 388.17,719.55 395.35,729.52 402.53,739.49 409.71,749.47 416.89,759.44 424.07,769.41 424.07,779.39 416.89,789.36 409.71,799.33 402.53,809.31 395.35,819.28 388.17,829.25 380.98,839.23 373.80,849.20 526.20,849.20"/>
</g>
<text x="150.0" y="24.0" text-anchor="middle" font-family="Helvetica,Arial,sans-serif" font-size="14" fill="#111111">sphere</text>
<text x="450.0" y="24.0" text-anchor="middle" font-family="Helvetica,Arial,sans-serif" font-size="14" fill="#111111">prolate_spheroid</text>
<text x="750.0" y="24.0" text-anchor="middle" font-family="Helvetica,Arial,sans-serif" font-size="14" fill="#111111">oblate_spheroid</text>
<text x="1050.0" y="24.0" text-anchor="middle" font-family="Helvetica,Arial,sans-serif" font-size="14" fill="#111111">golden_spheroid</text>
<text x="150.0" y="244.0" text-anchor="middle" font-family="Helvetica,Arial,sans-serif" font-size="14" fill="#111111">peanut</text>
<text x="450.0" y="244.0" text-anchor="middle" font-family="Helvetica,Arial,sans-serif" font-size="14" fill="#111111">multiscale_ripple</text>
<text x="750.0" y="244.0" text-anchor="middle" font-family="Helvetica,Arial,sans-serif" font-size="14" fill="#111111">cusped_spindle</text>
<text x="1050.0" y="244.0" text-anchor="middle" font-family="Helvetica,Arial,sans-serif" font-size="14" fill="#111111">superquadric_capsule</text>
<text x="150.0" y="464.0" text-anchor="middle" font-family="Helvetica,Arial,sans-serif" font-size="14" fill="#111111">torus</text>
<text x="450.0" y="464.0" text-anchor="middle" font-family="Helvetica,Arial,sans-serif" font-size="14" fill="#111111">thin_torus</text>
<text x="750.0" y="464.0" text-anchor="middle" font-family="Helvetica,Arial,sans-serif" font-size="14" fill="#111111">cylinder</text>
<text x="1050.0" y="464.0" text-anchor="middle" font-family="Helvetica,Arial,sans-serif" font-size="14" fill="#111111">frustum</text>
<text x="150.0" y="684.0" text-anchor="middle" font-family="Helvetica,Arial,sans-serif" font-size="14" fill="#111111">near_tip_cone</text>
<text x="450.0" y="684.0" text-anchor="middle" font-family="Helvetica,Arial,sans-serif" font-size="14" fill="#111111">double_concave_hourglass</text>
</svg>