<svg xmlns="http://www.w3.org/2000/svg" width="960" height="520" viewBox="0 0 960 520">
<rect width="100%" height="100%" fill="#fff" />
<text x="70" y="24" font-size="17" font-family="serif">Hardy block RMS obstruction</text>
<text x="580" y="24" font-size="17" font-family="serif">Odd-n alias tower</text>
<line x1="70.00" y1="38" x2="70.00" y2="398" stroke="#eeeeee" />
<text x="62.00" y="424" font-size="12">8</text>
<line x1="203.33" y1="38" x2="203.33" y2="398" stroke="#eeeeee" />
<text x="195.33" y="424" font-size="12">16</text>
<line x1="336.67" y1="38" x2="336.67" y2="398" stroke="#eeeeee" />
<text x="328.67" y="424" font-size="12">32</text>
<line x1="470.00" y1="38" x2="470.00" y2="398" stroke="#eeeeee" />
<text x="462.00" y="424" font-size="12">64</text>
<line x1="70" y1="38.00" x2="470" y2="38.00" stroke="#eeeeee" />
<text x="20" y="42.00" font-size="12">24.1</text>
<line x1="70" y1="128.00" x2="470" y2="128.00" stroke="#eeeeee" />
<text x="20" y="132.00" font-size="12">18.1</text>
<line x1="70" y1="218.00" x2="470" y2="218.00" stroke="#eeeeee" />
<text x="20" y="222.00" font-size="12">12.0</text>
<line x1="70" y1="308.00" x2="470" y2="308.00" stroke="#eeeeee" />
<text x="20" y="312.00" font-size="12">6.0</text>
<line x1="70" y1="398.00" x2="470" y2="398.00" stroke="#eeeeee" />
<text x="20" y="402.00" font-size="12">0.0</text>
<rect x="70" y="38" width="400" height="360" fill="none" stroke="#222" />
<polyline points="70.00,75.42 203.33,154.80 336.67,214.14 470.00,260.00" fill="none" stroke="#111111" stroke-width="2.2" stroke-linejoin="round" stroke-linecap="round" />
<polyline points="70.00,76.57 203.33,147.10 336.67,215.02 470.00,258.48" fill="none" stroke="#666666" stroke-width="2.2" stroke-linejoin="round" stroke-linecap="round" />
<polyline points="70.00,325.64 203.33,361.82 336.67,379.91 470.00,388.95" fill="none" stroke="#bdbdbd" stroke-width="2.2" stroke-linejoin="round" stroke-linecap="round" />
<text x="208" y="438" font-size="13">Q</text>
<text x="20" y="252" transform="rotate(-90 20 252)" font-size="13">RMS</text>
<line x1="290" y1="62" x2="334" y2="62" stroke="#111" stroke-width="2.2" />
<text x="342" y="66" font-size="12">diagonal theory</text>
<line x1="290" y1="82" x2="334" y2="82" stroke="#666" stroke-width="2.2" />
<text x="342" y="86" font-size="12">grid RMS</text>
<line x1="290" y1="102" x2="334" y2="102" stroke="#bdbdbd" stroke-width="2.2" />
<text x="342" y="106" font-size="12">claimed sqrt(X)/Q</text>
<rect x="562" y="84" width="390" height="260" fill="none" stroke="#222" />
<rect x="580.00" y="344.00" width="34" height="0.00" fill="#bdbdbd" />
<text x="587.00" y="366" font-size="12">1</text>
<rect x="629.00" y="344.00" width="34" height="0.00" fill="#bdbdbd" />
<text x="636.00" y="366" font-size="12">2</text>
<rect x="678.00" y="344.00" width="34" height="0.00" fill="#bdbdbd" />
<text x="685.00" y="366" font-size="12">3</text>
<rect x="727.00" y="84.00" width="34" height="260.00" fill="#111111" />
<text x="734.00" y="366" font-size="12">4</text>
<rect x="776.00" y="344.00" width="34" height="0.00" fill="#bdbdbd" />
<text x="783.00" y="366" font-size="12">5</text>
<rect x="825.00" y="344.00" width="34" height="0.00" fill="#bdbdbd" />
<text x="832.00" y="366" font-size="12">6</text>
<rect x="874.00" y="344.00" width="34" height="0.00" fill="#bdbdbd" />
<text x="881.00" y="366" font-size="12">7</text>
<rect x="923.00" y="335.56" width="34" height="8.44" fill="#111111" />
<text x="930.00" y="366" font-size="12">8</text>
<text x="724" y="394" font-size="13">alias level k for n=17</text>
<text x="596" y="372" font-size="12" fill="#777">grey = structural zero</text>
<text x="768" y="372" font-size="12" fill="#111">black = 4 | kn</text>
</svg>
